<svg xmlns="http://www.w3.org/2000/svg" width="149.532" height="33.116" viewBox="0 0 149.532 33.116"><g transform="translate(-197 -492)"><path d="M5.34,0H144.191c2.949,0,5.34,1.442,5.34,3.222V29.895c0,1.779-2.391,3.222-5.34,3.222H5.34C2.391,33.116,0,31.674,0,29.895V3.222C0,1.442,2.391,0,5.34,0Z" transform="translate(197 492)" fill="#b0ca36"/><path d="M19.926.159.7,11.248a1.374,1.374,0,0,0,.163,2.459L6.88,16.2v4.377a1.373,1.373,0,0,0,2.433.871l2.6-3.167,5.424,2.24a1.372,1.372,0,0,0,1.88-1.06l2.747-17.9A1.374,1.374,0,0,0,19.926.159ZM8.253,20.574V16.763l2.339.966Zm9.613-1.326L9.017,15.591,17.579,5.472a.257.257,0,0,0-.365-.36L6.258,14.45,1.387,12.441,20.613,1.348Z" transform="translate(288.047 497.863)" fill="#fff"/><text transform="translate(244 515.394)" fill="#fff" font-size="18" font-family="Lato-Regular, Lato"><tspan x="-40.014" y="0">Answered</tspan></text></g></svg>