<svg xmlns="http://www.w3.org/2000/svg" width="124.5" height="33.116" viewBox="0 0 124.5 33.116"><g transform="translate(-292 -1135)"><g transform="translate(292 1135)" fill="#fcfcfc"><path d="M 120.0535659790039 32.61646270751953 L 4.44642972946167 32.61646270751953 C 3.363279581069946 32.61646270751953 2.350862741470337 32.31512832641602 1.595696210861206 31.7679443359375 C 0.8891295194625854 31.25599479675293 0.4999961853027344 30.59072685241699 0.4999961853027344 29.89472770690918 L 0.4999961853027344 3.221727609634399 C 0.4999961853027344 2.525727510452271 0.8891295194625854 1.860460877418518 1.595696210861206 1.34851086139679 C 2.350862741470337 0.8013275265693665 3.363279581069946 0.4999942183494568 4.44642972946167 0.4999942183494568 L 120.0535659790039 0.4999942183494568 C 121.1367111206055 0.4999942183494568 122.1491317749023 0.8013275265693665 122.904296875 1.34851086139679 C 123.6108627319336 1.860460877418518 124 2.525727510452271 124 3.221727609634399 L 124 29.89472770690918 C 124 30.59072685241699 123.6108627319336 31.25599479675293 122.904296875 31.7679443359375 C 122.1491317749023 32.31512832641602 121.1367111206055 32.61646270751953 120.0535659790039 32.61646270751953 Z" stroke="none"/><path d="M 4.446426391601563 0.9999923706054688 C 2.578262329101563 0.9999923706054688 0.9999923706054688 2.017427444458008 0.9999923706054688 3.22172737121582 L 0.9999923706054688 29.89472770690918 C 0.9999923706054688 31.09902763366699 2.578262329101563 32.11646270751953 4.446426391601563 32.11646270751953 L 120.0535659790039 32.11646270751953 C 121.9217300415039 32.11646270751953 123.5 31.09902763366699 123.5 29.89472770690918 L 123.5 3.22172737121582 C 123.5 2.017427444458008 121.9217300415039 0.9999923706054688 120.0535659790039 0.9999923706054688 L 4.446426391601563 0.9999923706054688 M 4.446426391601563 -7.62939453125e-06 L 120.0535659790039 -7.62939453125e-06 C 122.5092468261719 -7.62939453125e-06 124.5 1.442411422729492 124.5 3.22172737121582 L 124.5 29.89472770690918 C 124.5 31.67404365539551 122.5092468261719 33.11646270751953 120.0535659790039 33.11646270751953 L 4.446426391601563 33.11646270751953 C 1.990730285644531 33.11646270751953 -7.62939453125e-06 31.67404365539551 -7.62939453125e-06 29.89472770690918 L -7.62939453125e-06 3.22172737121582 C -7.62939453125e-06 1.442411422729492 1.990730285644531 -7.62939453125e-06 4.446426391601563 -7.62939453125e-06 Z" stroke="none" fill="#6f6f6f"/></g><text transform="translate(332 1158.394)" fill="#6f6f6f" font-size="18" font-family="Lato-Regular, Lato"><tspan x="-30.267" y="0">Answer</tspan></text><path d="M19.926.159.7,11.248a1.374,1.374,0,0,0,.163,2.459L6.88,16.2v4.377a1.373,1.373,0,0,0,2.433.871l2.6-3.167,5.424,2.24a1.372,1.372,0,0,0,1.88-1.06l2.747-17.9A1.374,1.374,0,0,0,19.926.159ZM8.253,20.574V16.763l2.339.966Zm9.613-1.326L9.017,15.591,17.579,5.472a.257.257,0,0,0-.365-.36L6.258,14.45,1.387,12.441,20.613,1.348Z" transform="translate(370.047 1140.863)" fill="#6f6f6f"/></g></svg>