<svg xmlns="http://www.w3.org/2000/svg" width="21.975" height="25.114" viewBox="0 0 21.975 25.114">
  <path id="calendar-star-light" d="M7.348,18.1,6.96,20.371a1.367,1.367,0,0,0,.549,1.344,1.4,1.4,0,0,0,.8.265,1.353,1.353,0,0,0,.638-.162l2.036-1.069,2.036,1.069a1.375,1.375,0,0,0,2-1.447L14.632,18.1l1.643-1.6a1.37,1.37,0,0,0-.76-2.34l-2.276-.334-1.015-2.065a1.379,1.379,0,0,0-1.236-.77,1.358,1.358,0,0,0-1.226.765L8.746,13.818l-2.276.334a1.37,1.37,0,0,0-.76,2.34L7.348,18.1Zm2.433-2.85L10.987,12.8l1.207,2.448,2.7.392L12.94,17.55l.461,2.688-2.413-1.266-2.413,1.27.461-2.688L7.083,15.647l2.7-.4ZM19.62,3.139H17.266V.392A.394.394,0,0,0,16.873,0h-.785A.394.394,0,0,0,15.7.392V3.139H6.278V.392A.394.394,0,0,0,5.886,0H5.1a.394.394,0,0,0-.392.392V3.139H2.354A2.355,2.355,0,0,0,0,5.494V22.759a2.355,2.355,0,0,0,2.354,2.354H19.62a2.355,2.355,0,0,0,2.354-2.354V5.494A2.355,2.355,0,0,0,19.62,3.139Zm.785,19.62a.787.787,0,0,1-.785.785H2.354a.787.787,0,0,1-.785-.785V9.418H20.4Zm0-14.911H1.57V5.494a.787.787,0,0,1,.785-.785H19.62a.787.787,0,0,1,.785.785Z" transform="translate(0 0)" fill="#6f6f6f"/>
</svg>
