<svg xmlns="http://www.w3.org/2000/svg" width="95.501" height="84.89" viewBox="0 0 95.501 84.89"><path d="M84.89,26.528H68.973V10.611A10.621,10.621,0,0,0,58.362,0H10.611A10.621,10.621,0,0,0,0,10.611V37.139A10.621,10.621,0,0,0,10.611,47.751h5.306v8.622a1.984,1.984,0,0,0,1.99,1.99,1.9,1.9,0,0,0,1.177-.4l12.75-7.212V63.668A10.621,10.621,0,0,0,42.445,74.279H58.362L76.418,84.492a2.012,2.012,0,0,0,1.177.4,1.984,1.984,0,0,0,1.99-1.99V74.279H84.89A10.621,10.621,0,0,0,95.5,63.668V37.139A10.621,10.621,0,0,0,84.89,26.528ZM10.611,42.445a5.321,5.321,0,0,1-5.306-5.306V10.611a5.321,5.321,0,0,1,5.306-5.306H58.362a5.321,5.321,0,0,1,5.306,5.306V37.139a5.321,5.321,0,0,1-5.306,5.306H35.747l-1.21.7L21.223,50.669V42.445ZM90.2,63.668a5.321,5.321,0,0,1-5.306,5.306H74.279V77.2l-13.3-7.527-1.21-.7H42.445a5.321,5.321,0,0,1-5.306-5.306V47.751H58.362A10.621,10.621,0,0,0,68.973,37.139V31.834H84.89A5.321,5.321,0,0,1,90.2,37.139Z" fill="#ffffff"/></svg>
