<svg xmlns="http://www.w3.org/2000/svg" width="103.616" height="92.103" viewBox="0 0 103.616 92.103"><path d="M7.7,44.307a6.12,6.12,0,0,1-6.1-6.1V7.7A6.12,6.12,0,0,1,7.7,1.6H62.612a6.12,6.12,0,0,1,6.1,6.1V38.205a6.12,6.12,0,0,1-6.1,6.1H36.6l-1.392.8L19.9,53.764V44.307Z" transform="translate(1.769 3.069)" fill="#b0ca36"/><path fill="#fff" d="M92.1,28.782H74.834V11.513A11.524,11.524,0,0,0,63.321,0H11.513A11.524,11.524,0,0,0,0,11.513V40.3A11.524,11.524,0,0,0,11.513,51.808h5.756v9.354a2.152,2.152,0,0,0,2.159,2.159,2.066,2.066,0,0,0,1.277-.432l13.833-7.825V69.078A11.524,11.524,0,0,0,46.052,80.59H63.321l19.59,11.081a2.183,2.183,0,0,0,1.277.432,2.152,2.152,0,0,0,2.159-2.159V80.59H92.1a11.524,11.524,0,0,0,11.513-11.513V40.3A11.524,11.524,0,0,0,92.1,28.782ZM11.513,46.052A5.773,5.773,0,0,1,5.756,40.3V11.513a5.773,5.773,0,0,1,5.756-5.756H63.321a5.773,5.773,0,0,1,5.756,5.756V40.3a5.773,5.773,0,0,1-5.756,5.756H38.784l-1.313.756L23.026,54.974V46.052ZM97.86,69.078A5.773,5.773,0,0,1,92.1,74.834H80.59v8.923L66.163,75.59l-1.313-.756h-18.8A5.773,5.773,0,0,1,40.3,69.078V51.808H63.321A11.524,11.524,0,0,0,74.834,40.3V34.539H92.1A5.773,5.773,0,0,1,97.86,40.3Z"/></svg>
