<svg xmlns="http://www.w3.org/2000/svg" width="24.753" height="21.656" viewBox="0 0 24.753 21.656">
  <path id="comment-dots-light" d="M6.124,40.894a1.16,1.16,0,1,0,1.16,1.16A1.157,1.157,0,0,0,6.124,40.894Zm6.187,0a1.16,1.16,0,1,0,1.16,1.16A1.157,1.157,0,0,0,12.312,40.894Zm6.187,0a1.16,1.16,0,1,0,1.16,1.16A1.157,1.157,0,0,0,18.5,40.894ZM12.312,32C5.476,32-.063,36.5-.063,42.054A8.886,8.886,0,0,0,2.494,48.16,12.267,12.267,0,0,1,.251,51.7,1.16,1.16,0,0,0,1.1,53.656a11.729,11.729,0,0,0,6.724-2.238,14.929,14.929,0,0,0,4.491.691c6.835,0,12.375-4.5,12.375-10.054S19.147,32,12.312,32Zm0,18.562a13.333,13.333,0,0,1-4.022-.619l-.735-.232-.628.445a10.43,10.43,0,0,1-4.96,1.914,13.04,13.04,0,0,0,1.972-3.364l.343-.9L3.62,47.1a7.306,7.306,0,0,1-2.137-5.042c0-4.689,4.858-8.508,10.828-8.508s10.828,3.819,10.828,8.508S18.281,50.562,12.312,50.562Z" transform="translate(0.067 -32)" fill="#b2cc35"/>
</svg>
