<svg xmlns="http://www.w3.org/2000/svg" width="21.622" height="21.622" viewBox="0 0 21.622 21.622"><defs><style>.a{fill:#6f6f6f;}</style></defs><path class="a" d="M18.919,0H2.7A2.705,2.705,0,0,0,0,2.7V14.865a2.705,2.705,0,0,0,2.7,2.7H6.757v3.547a.505.505,0,0,0,.507.507.485.485,0,0,0,.3-.1l5.274-3.953h6.081a2.705,2.705,0,0,0,2.7-2.7V2.7A2.705,2.705,0,0,0,18.919,0ZM20.27,14.865a1.355,1.355,0,0,1-1.351,1.351H12.386l-.359.27L8.108,19.426V16.216H2.7a1.355,1.355,0,0,1-1.351-1.351V2.7A1.355,1.355,0,0,1,2.7,1.351H18.919A1.355,1.355,0,0,1,20.27,2.7Zm-8.446-4.73H5.743a.339.339,0,0,0-.338.338v.676a.339.339,0,0,0,.338.338h6.081a.339.339,0,0,0,.338-.338v-.676A.339.339,0,0,0,11.824,10.135Zm4.054-4.054H5.743a.339.339,0,0,0-.338.338v.676a.339.339,0,0,0,.338.338H15.878a.339.339,0,0,0,.338-.338V6.419A.339.339,0,0,0,15.878,6.081Z"/></svg>