<svg xmlns="http://www.w3.org/2000/svg" width="93.132" height="81.48" viewBox="0 0 93.132 81.48"><path d="M23.226,65.465a4.365,4.365,0,1,0,4.365,4.365A4.355,4.355,0,0,0,23.226,65.465Zm23.28,0a4.365,4.365,0,1,0,4.365,4.365A4.355,4.355,0,0,0,46.506,65.465Zm23.28,0a4.365,4.365,0,1,0,4.365,4.365A4.355,4.355,0,0,0,69.786,65.465ZM46.506,32C20.789,32-.054,48.933-.054,69.83c0,8.657,3.619,16.587,9.621,22.971a46.153,46.153,0,0,1-8.439,13.313,4.366,4.366,0,0,0,3.183,7.366,44.13,44.13,0,0,0,25.3-8.421,56.173,56.173,0,0,0,16.9,2.6c25.717,0,46.56-16.933,46.56-37.83S72.223,32,46.506,32Zm0,69.84a50.165,50.165,0,0,1-15.132-2.328l-2.764-.873-2.364,1.673a39.244,39.244,0,0,1-18.66,7.2A49.064,49.064,0,0,0,15,94.856l1.291-3.4L13.8,88.8C8.548,83.234,5.766,76.668,5.766,69.83c0-17.642,18.278-32.01,40.74-32.01s40.74,14.368,40.74,32.01S68.967,101.84,46.506,101.84Z" transform="translate(0.066 -32)" fill="#707070"/></svg>