<svg xmlns="http://www.w3.org/2000/svg" width="16.497" height="22" viewBox="0 0 16.497 22">
  <path id="file-pdf-light" d="M15.891,4.11l-3.6-3.6A2.062,2.062,0,0,0,10.83-.1H2.062A2.069,2.069,0,0,0,0,1.966V19.838A2.063,2.063,0,0,0,2.062,21.9H14.435A2.063,2.063,0,0,0,16.5,19.838V5.571a2.072,2.072,0,0,0-.606-1.461Zm-.971.975a.676.676,0,0,1,.18.318H11V1.3a.676.676,0,0,1,.318.18Zm-.485,15.44H2.062a.689.689,0,0,1-.687-.687V1.966a.689.689,0,0,1,.687-.687H9.623V5.747a1.029,1.029,0,0,0,1.031,1.031h4.468v13.06A.689.689,0,0,1,14.435,20.525ZM13.49,13.17c-.58-.571-2.363-.4-3.166-.288a4.5,4.5,0,0,1-1.938-2.432,6.278,6.278,0,0,0,.275-2.788,1,1,0,0,0-1.916-.292,7.227,7.227,0,0,0,.361,3.342A41.36,41.36,0,0,1,5.3,14.519c-.894.46-2.324,1.259-2.526,2.251-.15.722.984,1.693,2.281.275A11.5,11.5,0,0,0,6.4,15.091,24.975,24.975,0,0,1,9.92,14.06a6.554,6.554,0,0,0,2.775.855,1.042,1.042,0,0,0,.795-1.744ZM3.643,16.994a6,6,0,0,1,1.525-1.753C4.219,16.758,3.643,17.024,3.643,16.994Zm4.09-9.55c.374,0,.335,1.611.09,2.045A4.174,4.174,0,0,1,7.733,7.444Zm-1.22,6.844A20.151,20.151,0,0,0,7.75,11.551a5.6,5.6,0,0,0,1.508,1.783A15.7,15.7,0,0,0,6.513,14.287Zm6.59-.253s-.249.3-1.869-.391C13,13.514,13.283,13.918,13.1,14.034Z" transform="translate(0 0.1)" fill="#ffffff"/>
</svg>
