<svg xmlns="http://www.w3.org/2000/svg" width="130.76" height="174.38" viewBox="0 0 130.76 174.38">
  <path id="files" fill="#6f6f6f" d="M125.958,33.271,97.388,4.7A16.345,16.345,0,0,0,85.845-.1h-69.5A16.4,16.4,0,0,0,0,16.279V157.935A16.349,16.349,0,0,0,16.345,174.28h98.069a16.349,16.349,0,0,0,16.345-16.345V44.849a16.425,16.425,0,0,0-4.8-11.578Zm-7.7,7.73a5.357,5.357,0,0,1,1.43,2.52H87.173V11a5.357,5.357,0,0,1,2.52,1.43Zm-3.848,122.383H16.345a5.464,5.464,0,0,1-5.448-5.448V16.279a5.464,5.464,0,0,1,5.448-5.448H76.276V46.245a8.153,8.153,0,0,0,8.172,8.172h35.414V157.935A5.464,5.464,0,0,1,114.414,163.383ZM98.069,80.3v2.724a4.1,4.1,0,0,1-4.086,4.086H36.776a4.1,4.1,0,0,1-4.086-4.086V80.3a4.1,4.1,0,0,1,4.086-4.086H93.983A4.1,4.1,0,0,1,98.069,80.3Zm0,21.793v2.724a4.1,4.1,0,0,1-4.086,4.086H36.776a4.1,4.1,0,0,1-4.086-4.086V102.09A4.1,4.1,0,0,1,36.776,98H93.983A4.1,4.1,0,0,1,98.069,102.09Zm0,21.793v2.724a4.1,4.1,0,0,1-4.086,4.086H36.776a4.1,4.1,0,0,1-4.086-4.086v-2.724a4.1,4.1,0,0,1,4.086-4.086H93.983A4.1,4.1,0,0,1,98.069,123.883Z" transform="translate(0 0.1)"/>
</svg>
