<svg xmlns="http://www.w3.org/2000/svg" viewBox="0 0 182.05 50.16"><defs><style>.cls-1{fill:#fff;}.cls-2{fill:#fff;}</style></defs><title>GPEx_logo_NEG</title><g id="Layer_2" data-name="Layer 2"><g id="Layer_1-2" data-name="Layer 1"><path class="cls-1" fill="#fff" d="M155.22,30.84h0a4,4,0,0,1-2.85-1.18L141.19,18.54a4,4,0,0,1,0-5.69,4.06,4.06,0,0,1,5.72,0l8.31,8.29L175.15,1.29a4.06,4.06,0,0,1,5.72,0,4,4,0,0,1,0,5.68L158.08,29.66a4,4,0,0,1-2.86,1.18"/><path class="cls-2" d="M174.47,50a4,4,0,0,1-2.86-1.17L160.8,38.06a4,4,0,0,1,0-5.68,4,4,0,0,1,5.71,0l10.81,10.76A4,4,0,0,1,174.47,50"/><path class="cls-2" d="M59.58,29.14H74a10.5,10.5,0,1,0,0-21H59.58ZM55.54,50a4,4,0,0,1-4-4V4.13a4,4,0,0,1,4-4H74a18.53,18.53,0,1,1,0,37.06H59.58V46a4,4,0,0,1-4,4"/><path class="cls-2" d="M25.21,50.16A25.08,25.08,0,1,1,38.85,4a4,4,0,1,1-4.38,6.76,17,17,0,1,0,2.19,27V29.1H25.2a4,4,0,1,1,0-8H40.7a4,4,0,0,1,4,4V39.43a4,4,0,0,1-1.09,2.74,25.34,25.34,0,0,1-18.44,8"/><path class="cls-2" d="M149.63,32.38a4,4,0,0,0-5.71,0L134.3,42H107V29.07h20.93a4,4,0,1,0,0-8H107V8.15h25.51a4,4,0,1,0,0-8H102.91a4,4,0,0,0-4,4V46a4,4,0,0,0,4,4H136a4.07,4.07,0,0,0,2.86-1.17l10.81-10.77a4,4,0,0,0,0-5.68"/></g></g></svg>
