<svg xmlns="http://www.w3.org/2000/svg" width="94.612" height="94.616" viewBox="0 0 94.612 94.616"><path d="M94.1,50.819c-3.87-8.708-8.952-28.039-13.505-34.511A38.427,38.427,0,0,0,49.168,0H36.955C17.638,0,.756,14.8.021,34.1a35.352,35.352,0,0,0,11.8,27.77V93.138A1.478,1.478,0,0,0,13.3,94.616h2.957a1.478,1.478,0,0,0,1.478-1.478v-33.9l-1.966-1.763A29.507,29.507,0,0,1,5.929,34.33c.6-15.665,14.516-28.416,31.026-28.416H49.166A32.538,32.538,0,0,1,75.76,19.708c2.316,3.292,5.381,12.336,7.847,19.6,1.8,5.306,3.5,10.317,5.095,13.91H76.871V70.962a5.914,5.914,0,0,1-5.914,5.914H53.217V93.138A1.478,1.478,0,0,0,54.7,94.616h2.957a1.478,1.478,0,0,0,1.478-1.478V82.789H70.957A11.827,11.827,0,0,0,82.784,70.962V59.135H88.7a5.914,5.914,0,0,0,5.4-8.316ZM57.948,35.481a6.953,6.953,0,0,0,7.1-6.8,6.953,6.953,0,0,0-7.1-6.8h-.48a7.039,7.039,0,0,0-6.616-4.731,6.89,6.89,0,0,0-3.526,1.074,6.84,6.84,0,0,0-11.87,0,6.907,6.907,0,0,0-3.528-1.074,7.1,7.1,0,0,0-7.1,7.1A7.047,7.047,0,0,0,22.561,37.98c-.011.159-.094.3-.094.458a7.1,7.1,0,0,0,7.1,7.1,7.006,7.006,0,0,0,2.365-.477v8.164H41.39V45.057a7.006,7.006,0,0,0,2.365.477,7.1,7.1,0,0,0,7.1-7.1,6.993,6.993,0,0,0-.689-2.957Z" transform="translate(0.006)" fill="#ffffff"/></svg>
