<svg xmlns="http://www.w3.org/2000/svg" width="81.723" height="93.396" viewBox="0 0 81.723 93.396"><g transform="translate(0)"><path d="M68.743,61.609H4.533a2.769,2.769,0,0,1-2.065-4.745c6.359-6.054,10.813-12.831,10.813-31.39,0-12.291,10.447-22.238,23.356-22.238s23.356,9.945,23.356,22.236c0,18.488,4.416,25.3,10.813,31.39A2.77,2.77,0,0,1,68.743,61.609Z" transform="translate(4.224 8.438)" fill="#b0ca36"/><path fill="#ffffff" d="M40.857,87.558a5.846,5.846,0,0,1-5.837-5.843H29.182a11.674,11.674,0,1,0,23.349,0H46.694A5.846,5.846,0,0,1,40.857,87.558ZM79.05,61.074c-5.1-4.856-9-9.938-9-27.163,0-14.518-11.563-26.359-26.275-27.791v-3.2a2.919,2.919,0,1,0-5.837,0v3.2C23.226,7.554,11.663,19.392,11.663,33.911c0,17.223-3.9,22.307-9,27.163A8.49,8.49,0,0,0,.609,70.419a8.7,8.7,0,0,0,8.143,5.465h64.21A8.706,8.706,0,0,0,81.1,70.417,8.488,8.488,0,0,0,79.05,61.074Zm-6.089,8.973H8.752A2.769,2.769,0,0,1,6.687,65.3C13.046,59.248,17.5,52.471,17.5,33.912c0-12.291,10.447-22.238,23.356-22.238S64.213,21.62,64.213,33.911c0,18.488,4.416,25.3,10.813,31.39A2.77,2.77,0,0,1,72.961,70.047Z" transform="translate(0.005)"/></g></svg>
