<svg xmlns="http://www.w3.org/2000/svg" width="84.608" height="96.693" viewBox="0 0 84.608 96.693"><path d="M42.3,90.65A6.053,6.053,0,0,1,36.256,84.6H30.213a12.087,12.087,0,1,0,24.173,0H48.343A6.053,6.053,0,0,1,42.3,90.65ZM81.841,63.23c-5.28-5.027-9.318-10.289-9.318-28.122,0-15.031-11.971-27.289-27.2-28.772V3.022a3.022,3.022,0,1,0-6.043,0V6.338c-15.231,1.482-27.2,13.739-27.2,28.77,0,17.832-4.04,23.095-9.32,28.122A8.79,8.79,0,0,0,.631,72.9a9.012,9.012,0,0,0,8.43,5.658H75.537a9.013,9.013,0,0,0,8.43-5.66A8.788,8.788,0,0,0,81.841,63.23Zm-6.3,9.29H9.061a2.867,2.867,0,0,1-2.138-4.912c6.583-6.268,11.2-13.284,11.2-32.5,0-12.725,10.816-23.023,24.181-23.023S66.48,22.383,66.48,35.108c0,19.14,4.572,26.194,11.2,32.5A2.868,2.868,0,0,1,75.537,72.52Z" transform="translate(0.005)" fill="#ffffff"/></svg>
