<svg xmlns="http://www.w3.org/2000/svg" width="22.034" height="22.034" viewBox="0 0 22.034 22.034">
  <path id="poll-h-light" d="M22.034,51.673V34.361A2.361,2.361,0,0,0,19.673,32H2.361A2.361,2.361,0,0,0,0,34.361V51.673a2.361,2.361,0,0,0,2.361,2.361H19.673A2.361,2.361,0,0,0,22.034,51.673ZM2.361,52.46a.788.788,0,0,1-.787-.787V34.361a.788.788,0,0,1,.787-.787H19.673a.788.788,0,0,1,.787.787V51.673a.788.788,0,0,1-.787.787Zm10.23-13.771V37.9a.393.393,0,0,0-.393-.393H5.115a.393.393,0,0,0-.393.393v.787a.393.393,0,0,0,.393.393H12.2A.393.393,0,0,0,12.591,38.689Zm4.722,4.722v-.787a.393.393,0,0,0-.393-.393H5.115a.393.393,0,0,0-.393.393v.787a.393.393,0,0,0,.393.393h11.8A.393.393,0,0,0,17.313,43.411ZM9.443,48.132v-.787a.393.393,0,0,0-.393-.393H5.115a.393.393,0,0,0-.393.393v.787a.393.393,0,0,0,.393.393H9.05A.393.393,0,0,0,9.443,48.132Z" transform="translate(0 -32)" fill="#ffffff"/>
</svg>
