<svg xmlns="http://www.w3.org/2000/svg" width="93.392" height="93.396" viewBox="0 0 93.392 93.396"><g transform="translate(0 0)"><path d="M38.731,785.745l1.832-32.968-13.6-17.269,1.307-17.792,22.5-18.054,22.762-1.57,21.72,7.064,14.129,33.491,2.092,9.942H99.96l2.092,15.176-6.8,8.373H77.194v14.652Z" transform="translate(-23.499 -694.151)" fill="#b0ca36"/><path fill="#ffffff" d="M92.882,50.164c-3.82-8.6-8.836-27.678-13.331-34.066A37.931,37.931,0,0,0,48.533,0H36.478C17.41,0,.747,14.608.021,33.664A34.9,34.9,0,0,0,11.669,61.076V91.936A1.459,1.459,0,0,0,13.129,93.4h2.919a1.459,1.459,0,0,0,1.459-1.459V58.471l-1.941-1.74A29.126,29.126,0,0,1,5.852,33.887c.591-15.463,14.329-28.05,30.625-28.05H48.532A32.118,32.118,0,0,1,74.783,19.454c2.286,3.25,5.312,12.177,7.745,19.351,1.775,5.237,3.453,10.184,5.029,13.73H75.879V70.047a5.837,5.837,0,0,1-5.837,5.837H52.53V91.936A1.459,1.459,0,0,0,53.989,93.4h2.919a1.459,1.459,0,0,0,1.459-1.459V81.721H70.042A11.674,11.674,0,0,0,81.716,70.047V58.372h5.837a5.837,5.837,0,0,0,5.328-8.209ZM57.2,35.023a6.864,6.864,0,0,0,7-6.713,6.864,6.864,0,0,0-7-6.713h-.474a6.948,6.948,0,0,0-6.53-4.67,6.8,6.8,0,0,0-3.48,1.06,6.752,6.752,0,0,0-11.716,0,6.818,6.818,0,0,0-3.482-1.06,7,7,0,0,0-7,7A6.956,6.956,0,0,0,22.269,37.49c-.011.157-.093.292-.093.452a7,7,0,0,0,7,7,6.915,6.915,0,0,0,2.335-.471v8.059h9.34V44.476a6.915,6.915,0,0,0,2.335.471,7,7,0,0,0,7-7,6.9,6.9,0,0,0-.68-2.919Z" transform="translate(0.006 0)"/></g></svg>
