<svg xmlns="http://www.w3.org/2000/svg" width="28.988" height="19.774" viewBox="0 0 28.988 19.774">
  <path id="retweet-light" d="M30.486,61.313l-4.478,4.638a.533.533,0,0,1-.773,0l-4.478-4.638a.58.58,0,0,1,0-.8l.258-.267a.533.533,0,0,1,.773,0l3.105,3.216V50.193H13.421a.537.537,0,0,1-.386-.166l-.364-.377a.569.569,0,0,1,.386-.966h12.2a1.113,1.113,0,0,1,1.093,1.132V63.463l3.105-3.216a.533.533,0,0,1,.773,0l.258.267A.58.58,0,0,1,30.486,61.313ZM19.269,62.432a.537.537,0,0,0-.386-.166H7.41V49l3.105,3.216a.533.533,0,0,0,.773,0l.258-.267a.58.58,0,0,0,0-.8L7.068,46.508a.533.533,0,0,0-.773,0L1.818,51.146a.58.58,0,0,0,0,.8l.258.267a.533.533,0,0,0,.773,0L5.953,49V62.643a1.113,1.113,0,0,0,1.093,1.132h12.2a.569.569,0,0,0,.386-.966Z" transform="translate(-1.658 -46.343)" fill="#6f6f6f"/>
</svg>
