<svg xmlns="http://www.w3.org/2000/svg" width="26.868" height="23.882" viewBox="0 0 26.868 23.882"><path fill="#6f6f6f" d="M26.35,9.159,23.562,6.244,18.141.577a1.867,1.867,0,0,0-3.214,1.29V5.978C7.209,6.071,0,7.468,0,15.448a9.923,9.923,0,0,0,4.157,8.143,1.493,1.493,0,0,0,2.317-1.61c-1.767-6.267,1.248-6.963,8.452-7.048v4.1a1.867,1.867,0,0,0,3.214,1.29l8.209-8.583a1.866,1.866,0,0,0,0-2.579Zm-1.079,1.548-8.21,8.583a.373.373,0,0,1-.643-.258v-5.6c-7.995,0-13.775.453-11.381,8.942a8.392,8.392,0,0,1-3.546-6.927c0-7.464,7.6-7.985,14.927-7.985v-5.6a.373.373,0,0,1,.643-.258l8.21,8.583A.372.372,0,0,1,25.271,10.706Z" transform="translate(0)"/></svg>