<svg xmlns="http://www.w3.org/2000/svg" width="101.707" height="82.622" viewBox="0 0 101.707 82.622"><path d="M100.391,48.265H39.222a1.2,1.2,0,0,1-1.192-1.192V42.307a1.2,1.2,0,0,1,1.192-1.192h61.168a1.2,1.2,0,0,1,1.192,1.192v4.766A1.2,1.2,0,0,1,100.391,48.265Zm1.192,30.584V74.083a1.2,1.2,0,0,0-1.192-1.192H39.222a1.2,1.2,0,0,0-1.192,1.192v4.766a1.2,1.2,0,0,0,1.192,1.192h61.168A1.2,1.2,0,0,0,101.582,78.849Zm0,31.776v-4.766a1.2,1.2,0,0,0-1.192-1.192H39.222a1.2,1.2,0,0,0-1.192,1.192v4.766a1.2,1.2,0,0,0,1.192,1.192h61.168A1.2,1.2,0,0,0,101.582,110.625ZM13.484,100.3a7.15,7.15,0,1,0,7.07,7.15A7.145,7.145,0,0,0,13.484,100.3ZM33.84,34.145l-1.47-1.47a2.385,2.385,0,0,0-3.376,0l-5.733,5.762L13.345,48.4,5.719,40.778a2.385,2.385,0,0,0-3.376,0L.575,42.545a2.385,2.385,0,0,0,0,3.376L11.359,56.705a2.385,2.385,0,0,0,3.376,0l.04-.04L24.749,46.65l9.071-9.109a2.392,2.392,0,0,0,.02-3.4ZM33.92,65.92l-1.47-1.47a2.385,2.385,0,0,0-3.376,0L13.424,80.18,5.8,72.554a2.385,2.385,0,0,0-3.376,0L.694,74.321a2.385,2.385,0,0,0,0,3.376L11.478,88.481a2.385,2.385,0,0,0,3.376,0l-.04-.04L33.94,69.316a2.428,2.428,0,0,0-.02-3.4Z" transform="translate(0.125 -31.975)" fill="#ffffff"/></svg>