<svg xmlns="http://www.w3.org/2000/svg" width="48" height="48" viewBox="0 0 48 48">
  <g id="Group_5669" data-name="Group 5669" transform="translate(-248 -160)">
    <circle id="Ellipse_486" data-name="Ellipse 486" cx="24" cy="24" r="24" transform="translate(248 160)" fill="#e5e5e5"/>
    <rect id="Rectangle_754" data-name="Rectangle 754" width="21" height="27" transform="translate(269 170)" fill="#b0ca36"/>
    <path id="tasks" d="M27.7,36.484H10.766a.331.331,0,0,1-.33-.33V34.835a.331.331,0,0,1,.33-.33H27.7a.331.331,0,0,1,.33.33v1.319A.331.331,0,0,1,27.7,36.484Zm.33,8.466V43.631a.331.331,0,0,0-.33-.33H10.766a.331.331,0,0,0-.33.33V44.95a.331.331,0,0,0,.33.33H27.7A.331.331,0,0,0,28.028,44.95Zm0,8.8V52.426a.331.331,0,0,0-.33-.33H10.766a.331.331,0,0,0-.33.33v1.319a.331.331,0,0,0,.33.33H27.7A.331.331,0,0,0,28.028,53.745ZM3.642,50.887A1.979,1.979,0,1,0,5.6,52.866,1.978,1.978,0,0,0,3.642,50.887ZM9.277,32.576l-.407-.407a.66.66,0,0,0-.935,0L3.6,36.523,1.493,34.412a.66.66,0,0,0-.935,0L.069,34.9a.66.66,0,0,0,0,.935L3.054,38.82a.66.66,0,0,0,.935,0L4,38.809l5.272-5.294a.662.662,0,0,0,.005-.94Zm.022,8.8-.407-.407a.66.66,0,0,0-.935,0L3.625,45.318,1.515,43.207a.66.66,0,0,0-.935,0L.1,43.7a.66.66,0,0,0,0,.935l2.985,2.985a.66.66,0,0,0,.935,0l-.011-.011L9.3,42.311a.672.672,0,0,0-.005-.94Z" transform="translate(257.125 139.025)"/>
    <path id="tasks-2" data-name="tasks" d="M27.7,36.484H10.766a.331.331,0,0,1-.33-.33V34.835a.331.331,0,0,1,.33-.33H27.7a.331.331,0,0,1,.33.33v1.319A.331.331,0,0,1,27.7,36.484Zm.33,8.466V43.631a.331.331,0,0,0-.33-.33H10.766a.331.331,0,0,0-.33.33V44.95a.331.331,0,0,0,.33.33H27.7A.331.331,0,0,0,28.028,44.95Zm0,8.8V52.426a.331.331,0,0,0-.33-.33H10.766a.331.331,0,0,0-.33.33v1.319a.331.331,0,0,0,.33.33H27.7A.331.331,0,0,0,28.028,53.745Z" transform="translate(258.125 140.025)" fill="#fbfbfb"/>
  </g>
</svg>
