<svg xmlns="http://www.w3.org/2000/svg" width="133.462" height="100.997" viewBox="0 0 133.462 100.997"><rect width="97.39" height="100.998" transform="translate(36.071)" fill="#b0ca36"/><path fill="#ffffff" d="M100.234,48.24H39.161a1.193,1.193,0,0,1-1.19-1.19V42.291a1.193,1.193,0,0,1,1.19-1.19h61.073a1.193,1.193,0,0,1,1.19,1.19V47.05A1.193,1.193,0,0,1,100.234,48.24Zm1.19,30.536V74.017a1.193,1.193,0,0,0-1.19-1.19H39.161a1.193,1.193,0,0,0-1.19,1.19v4.759a1.193,1.193,0,0,0,1.19,1.19h61.073A1.193,1.193,0,0,0,101.424,78.776Zm0,31.726v-4.759a1.193,1.193,0,0,0-1.19-1.19H39.161a1.193,1.193,0,0,0-1.19,1.19V110.5a1.193,1.193,0,0,0,1.19,1.19h61.073A1.193,1.193,0,0,0,101.424,110.5ZM13.463,100.191a7.139,7.139,0,1,0,7.059,7.138A7.134,7.134,0,0,0,13.463,100.191Zm20.325-66.05L32.32,32.674a2.382,2.382,0,0,0-3.371,0l-15.625,15.7L5.71,40.764a2.382,2.382,0,0,0-3.371,0L.574,42.529a2.382,2.382,0,0,0,0,3.371L11.341,56.667a2.382,2.382,0,0,0,3.371,0l.04-.04,19.016-19.1a2.388,2.388,0,0,0,.02-3.391Zm.079,31.726L32.4,64.4a2.382,2.382,0,0,0-3.371,0L13.4,80.1,5.789,72.49a2.382,2.382,0,0,0-3.371,0L.693,74.255a2.382,2.382,0,0,0,0,3.371L11.46,88.393a2.382,2.382,0,0,0,3.371,0l-.04-.04,19.1-19.1a2.424,2.424,0,0,0-.02-3.391Z" transform="translate(0.125 -31.975)"/></svg>
