<svg xmlns="http://www.w3.org/2000/svg" width="334.251" height="323.95" viewBox="0 0 334.251 323.95"><g transform="translate(-608.368 -382.087)"><rect width="81.968" height="186.05" rx="0.843" transform="translate(615.057 511.7)" fill="#b5b5b5"/><path d="M650.8,526.2c24.432,7.681,58.743-33.635,58.4-69.785-.231-24.38-1.052-53.784-4.562-64.709,12.051-12.05,27.668-8.123,39.72,3.929s28.6,33.965,22.92,96.533c19.313-.245,64.693-.131,84.936,1.788,14.494,1.374,37.54,22.644,8.938,51.247,22.643,7.746,37.541,44.1-1.788,54.226,20.26,10.727,24.387,45.289-10.726,52.439,3.706,20.3,2.979,34.561-29.133,43.035h-120.5c-24.1,0-48.2-24.1-48.2-24.1Z" transform="translate(52.179 2.843)" fill="#e6e6e6"/><path d="M653.478,528.28v24.409s38.732-7.748,60.185-32.774c14.6-17.032,42.307-75.678,19.663-126.925-7.15-5.661-13.705-6.535-23.834-5.661,6.556,78.956-3.577,103.983-18.475,121.859C674.821,528.625,653.478,528.28,653.478,528.28Z" transform="translate(55.466 6.087)" fill="#eee"/><path d="M653.478,511.225h186.66s2.235,17.478-26.962,21.054-115.6.6-124.542,0S659.436,518.771,653.478,511.225Z" transform="translate(55.466 158.784)" fill="#d3d3d3"/><path d="M629.408,442.936l1.938,173.942h-14.5s-2.98-1.987-3.576-11.394-1.193-146.46,0-153.61-2.979-8.938,3.576-8.938Z" transform="translate(5.182 74.818)" fill="#d4d4d4"/><rect width="13.377" height="23.055" transform="translate(627.146 541.119) rotate(-88.025)" fill="#6f6f6f"/><rect width="13.377" height="23.055" transform="translate(627.146 597.964) rotate(-88.025)" fill="#6f6f6f"/><rect width="13.377" height="23.055" transform="matrix(0.034, -0.999, 0.999, 0.034, 627.146, 571.215)" fill="#6f6f6f"/><rect width="13.377" height="23.055" transform="translate(627.146 627.407) rotate(-88.025)" fill="#6f6f6f"/><rect width="13.377" height="23.055" transform="translate(627.146 654.156) rotate(-88.025)" fill="#6f6f6f"/><rect width="13.377" height="23.055" transform="translate(627.146 680.905) rotate(-88.025)" fill="#6f6f6f"/><path d="M824.064,706.037H702.695c-26.565,0-51.866-25-52.93-26.062l-1.96-1.957V521.528l8.7,2.733c5.655,1.777,12.928-.33,20.489-5.935,14.326-10.619,29.433-34.346,29.212-57.4-.12-12.624-.489-51.043-4.24-62.727l-1.249-3.889,2.888-2.887c13.746-13.745,33.046-12.2,49.177,3.929,13.971,13.972,29.254,37.318,25.433,94.511,19.808-.116,59.054.053,78.325,1.879,9.892.938,22.307,8.559,26.892,21.31,2.373,6.588,4.054,19.174-7.812,34.5,11.3,7.4,18.977,20.45,18.492,32.915-.215,5.585-2.555,17.756-17.775,25.575a35.489,35.489,0,0,1,8.559,28.042c-1.853,12.878-10.84,22.53-24.988,27.143,2.525,18.621-.613,35.511-35,44.587Zm-162.881-33.7c5.9,5.3,24.138,20.318,41.512,20.318H822.319c27.108-7.362,26.623-17.673,23.43-35.147l-1.178-6.448,6.423-1.309c12.041-2.453,19.377-8.693,20.655-17.576,1.255-8.715-3.675-18.135-11.726-22.4L844.663,601.7l16.724-4.307c8.606-2.216,18.952-7.043,19.354-17.444.369-9.52-7.9-20.5-18.064-23.977l-10.15-3.471,7.588-7.585c9.894-9.895,13.6-19.348,10.729-27.339-2.542-7.063-10.06-12-15.57-12.519-19.912-1.888-65.342-2-84.219-1.759l-7.418.1.671-7.389c5.846-64.366-12.958-83.17-20.987-91.2-3.71-3.708-16-14.365-27.481-6.281,2.269,10.825,3.438,30.5,3.742,62.27.265,27.781-17.217,55.376-34.623,68.278-7.962,5.9-16.147,9.021-23.774,9.168Z" transform="translate(48.49 0)" fill="#6f6f6f"/><path d="M695.145,636.647H616.936a8.578,8.578,0,0,1-8.568-8.568V445.789a8.578,8.578,0,0,1,8.568-8.568h78.209a8.578,8.578,0,0,1,8.568,8.568v182.29A8.578,8.578,0,0,1,695.145,636.647Zm-73.4-13.377h68.59V450.6h-68.59Z" transform="translate(0 67.791)" fill="#6f6f6f"/></g></svg>