<svg xmlns="http://www.w3.org/2000/svg" width="315.499" height="305.775" viewBox="0 0 315.499 305.775"><g transform="translate(-464.388 -208.613)"><rect width="77.369" height="175.612" rx="0.843" transform="translate(470.7 332.461)" fill="#89c2e8"/><path d="M506.824,345.49c23.061,7.25,55.447-31.748,55.121-65.87-.219-23.013-.992-50.767-4.3-61.078,11.373-11.375,26.115-7.667,37.49,3.708s27,32.06,21.634,91.117c18.231-.231,61.064-.124,80.172,1.688,13.682,1.3,35.433,21.373,8.438,48.372,21.373,7.311,35.433,41.622-1.688,51.183,19.124,10.125,23.019,42.748-10.125,49.5,3.5,19.157,2.812,32.622-27.5,40.62H552.321c-22.747,0-45.5-22.747-45.5-22.747Z" transform="translate(46.87 3.345)" fill="#f2e7c2"/><path d="M509.5,347.6v23.04s36.558-7.313,56.808-30.936c13.778-16.077,39.935-71.433,18.562-119.8-6.749-5.343-12.936-6.168-22.5-5.343,6.187,74.526-3.375,98.149-17.436,115.022C529.643,347.923,509.5,347.6,509.5,347.6Z" transform="translate(49.822 6.258)" fill="#f4efdc"/><path d="M509.5,338.467H685.684s2.112,16.5-25.448,19.873-109.117.562-117.554,0S515.122,345.592,509.5,338.467Z" transform="translate(49.822 143.421)" fill="#e5d0b3"/><path d="M484.483,270.178l1.828,164.183H472.626s-2.811-1.875-3.375-10.754-1.125-138.243,0-144.992-2.812-8.437,3.375-8.437Z" transform="translate(4.653 67.997)" fill="#aee2f4"/><rect width="12.626" height="21.762" transform="translate(482.111 360.23) rotate(-88.025)" fill="#0a56dd"/><rect width="12.626" height="21.762" transform="translate(482.111 413.885) rotate(-88.025)" fill="#0a56dd"/><rect width="12.626" height="21.761" transform="matrix(0.034, -0.999, 0.999, 0.034, 482.112, 388.637)" fill="#0a56dd"/><rect width="12.626" height="21.762" transform="translate(482.111 441.677) rotate(-88.025)" fill="#0a56dd"/><rect width="12.626" height="21.762" transform="translate(482.111 466.924) rotate(-88.025)" fill="#0a56dd"/><rect width="12.626" height="21.762" transform="translate(482.111 492.173) rotate(-88.025)" fill="#0a56dd"/><path d="M670.2,514.388H555.634c-25.076,0-48.956-23.593-49.961-24.6l-1.849-1.848V340.232l8.207,2.58c5.341,1.677,12.206-.311,19.34-5.6,13.523-10.024,27.781-32.42,27.573-54.184-.114-11.918-.459-48.18-4-59.208l-1.179-3.67,2.725-2.725c12.975-12.974,31.2-11.518,46.419,3.708,13.189,13.187,27.616,35.225,24.006,89.209,18.7-.11,55.742.05,73.933,1.774,9.336.886,21.054,8.079,25.385,20.113,2.238,6.221,3.825,18.1-7.377,32.571,10.666,6.987,17.914,19.3,17.457,31.069-.2,5.272-2.413,16.76-16.781,24.141a33.481,33.481,0,0,1,8.081,26.468c-1.75,12.154-10.233,21.266-23.588,25.62,2.385,17.574-.577,33.518-33.034,42.083Zm-153.745-31.8c5.566,5,22.785,19.178,39.184,19.178H668.546c25.588-6.949,25.13-16.682,22.118-33.175l-1.111-6.086,6.061-1.235c11.367-2.315,18.289-8.205,19.5-16.59,1.184-8.228-3.471-17.117-11.068-21.139l-14.408-7.629,15.789-4.066c8.121-2.092,17.886-6.648,18.266-16.466.35-8.986-7.458-19.351-17.05-22.631l-9.581-3.277,7.161-7.162c9.34-9.338,12.841-18.26,10.128-25.8-2.4-6.667-9.5-11.325-14.7-11.817-18.794-1.783-61.676-1.885-79.495-1.661l-7,.091.633-6.974c5.52-60.754-12.229-78.5-19.809-86.084-3.5-3.5-15.1-13.559-25.94-5.929,2.142,10.217,3.245,28.792,3.531,58.774.25,26.222-16.251,52.271-32.68,64.45-7.513,5.568-15.241,8.515-22.44,8.654Z" transform="translate(43.556 0)" fill="#0a56dd"/><path d="M546.295,452.7H472.476a8.1,8.1,0,0,1-8.088-8.09V272.551a8.1,8.1,0,0,1,8.088-8.087h73.819a8.1,8.1,0,0,1,8.089,8.087V444.613A8.1,8.1,0,0,1,546.295,452.7Zm-69.279-12.627h64.742V277.09H477.015Z" transform="translate(0 61.685)" fill="#0a56dd"/></g></svg>