<svg xmlns="http://www.w3.org/2000/svg" width="101.689" height="88.978" viewBox="0 0 101.689 88.978"><path d="M19.067,57.422a6.356,6.356,0,1,1,6.356-6.356A6.349,6.349,0,0,1,19.067,57.422Zm25.422-6.356a6.356,6.356,0,1,0-6.356,6.356A6.349,6.349,0,0,0,44.489,51.067Zm19.067,0A6.356,6.356,0,1,0,57.2,57.422,6.349,6.349,0,0,0,63.556,51.067Zm38.134-9.533v69.911a9.536,9.536,0,0,1-9.533,9.533H9.533A9.536,9.536,0,0,1,0,111.445V41.533A9.536,9.536,0,0,1,9.533,32H92.156A9.536,9.536,0,0,1,101.689,41.533Zm-6.356,28.6H6.356v41.311a3.187,3.187,0,0,0,3.178,3.178H92.156a3.187,3.187,0,0,0,3.178-3.178Zm0-6.356V41.533a3.187,3.187,0,0,0-3.178-3.178H9.533a3.187,3.187,0,0,0-3.178,3.178V63.778Z" transform="translate(0 -32)" fill="#fff"/></svg>
