<svg xmlns="http://www.w3.org/2000/svg" width="104.268" height="91.234" viewBox="0 0 104.268 91.234"><g transform="translate(3.605 3.607)" fill="#b0ca36" stroke="#707070" stroke-width="1"><rect width="97.39" height="32.463" stroke="none"/><rect x="0.5" y="0.5" width="96.39" height="31.463" fill="none"/></g><path fill="#ffffff"  d="M19.55,58.067a6.517,6.517,0,1,1,6.517-6.517A6.51,6.51,0,0,1,19.55,58.067ZM45.617,51.55A6.517,6.517,0,1,0,39.1,58.067,6.51,6.51,0,0,0,45.617,51.55Zm19.55,0a6.517,6.517,0,1,0-6.517,6.517A6.51,6.51,0,0,0,65.167,51.55Zm39.1-9.775v71.684a9.778,9.778,0,0,1-9.775,9.775H9.775A9.778,9.778,0,0,1,0,113.459V41.775A9.778,9.778,0,0,1,9.775,32H94.492A9.778,9.778,0,0,1,104.267,41.775ZM97.751,71.1H6.517v42.359a3.268,3.268,0,0,0,3.258,3.258H94.492a3.268,3.268,0,0,0,3.258-3.258Zm0-6.517V41.775a3.268,3.268,0,0,0-3.258-3.258H9.775a3.268,3.268,0,0,0-3.258,3.258V64.584Z" transform="translate(0 -32)"/></svg>
